EXTRAORDINARY MEASURES 2010 DvDRip XviD

Format                           : AVI
Format/Info                      : Audio Video Interleave
File size                        : 603 MiB
Duration                         : 1h 46mn
Overall bit rate                 : 793 Kbps
Writing application              : MEncoder SVN-r29352(20090610-gcc4.3.3)
Writing library                  : MPlayer

Video
ID                               : 0
Format                           : MPEG-4 Visual
Format profile                   : AdvancedSimple@L5
Format settings, BVOP            : Yes
Format settings, QPel            : No
Format settings, GMC             : No warppoints
Format settings, Matrix          : Default (H.263)
Codec ID                         : XVID
Codec ID/Hint                    : XviD
Duration                         : 1h 46mn
Bit rate                         : 653 Kbps
Width                            : 640 pixels
Height                           : 360 pixels
Display aspect ratio             : 16:9
Frame rate                       : 25.000 fps
Resolution                       : 24 bits
Colorimetry                      : 4:2:0
Scan type                        : Progressive
Bits/(Pixel*Frame)               : 0.113
Stream size                      : 497 MiB (82%)
Writing library                  : XviD 1.2.1 (UTC 2008-12-04)

Audio
ID                               : 1
Format                           : MPEG Audio
Format version                   : Version 1
Format profile                   : Layer 3
Codec ID                         : 55
Codec ID/Hint                    : MP3
Duration                         : 1h 46mn
Bit rate mode                    : Constant
Bit rate                         : 128 Kbps
Channel(s)                       : 2 channels
Sampling rate                    : 44.1 KHz
Resolution                       : 16 bits
Video delay                      : 40ms
Stream size                      : 97.4 MiB (16%)
Alignment                        : Aligned on interleaves
Interleave, duration             : 26 ms (0.65 video frame)
Interleave, preload duration     : 522 ms
Writing library                  : LAME3.98

Brendan Fraser plays John Crowley, a biotechnology executive whose two youngest children were afflicted with Pompe disease or acid maltase deficiency. Along with his wife Aileen (Keri Russell), he raises money for research scientist Robert Stonehill (Harrison Ford), forming a company to develop a drug to save his children's lives. Dr. Stonehill is a composite of the many great scientists and researchers that researched for a cure over the years, among them Drs Arnold Reuser, Ans van der Ploeg, William Canfield and Dr. Yuan-Tsong Chen 
http://www.imdb.com/title/tt1244659/

PLEASE SEED AND ENJOY THANKS

screen shots 
http://img641.imageshack.us/img641/219/extordmeasrsxvidviceavi.jpg

Check Out My Other Torrents
 
http://thepiratebay.org/user/vicerock/
